<svg width="30" height="29" viewBox="0 0 30 29" fill="none" xmlns="http://www.w3.org/2000/svg">
<path d="M0.48208 12.2088C0.48208 12.9421 0.773695 13.6253 1.27634 14.1293C0.706554 14.7527 0.416197 15.5885 0.49552 16.4583C0.638268 18.0091 2.03526 19.2242 3.67743 19.2242H11.2138C10.8404 20.3577 10.2426 22.4354 10.2426 24.1045C10.2426 26.7508 12.4912 28.9847 13.9028 28.9847C15.1693 28.9847 16.0758 28.271 16.1136 28.2417C16.2588 28.1258 16.343 27.9501 16.343 27.7647V23.6275L19.858 16.0155L20.0032 15.941V16.1741C20.0032 16.5108 20.2765 16.7842 20.6132 16.7842H26.7135C28.396 16.7841 29.7637 15.4164 29.7637 13.7339V3.9734C29.7637 2.29091 28.396 0.923252 26.7135 0.923252H23.0533C21.7345 0.923252 20.6071 1.7651 20.1825 2.94002C19.1674 2.41781 17.8009 2.1433 16.953 2.1433H5.75397C4.42532 2.1433 3.26257 3.03885 2.98932 4.27353C2.84903 4.91041 2.93075 5.55095 3.20893 6.1073C2.30852 6.55996 1.70213 7.49085 1.70213 8.54865C1.70213 8.98055 1.80095 9.39415 1.98762 9.76749C1.08722 10.2214 0.48208 11.151 0.48208 12.2088ZM3.0552 10.7033C3.29066 10.6752 3.48956 10.5154 3.56517 10.2897C3.63957 10.064 3.57735 9.81634 3.40412 9.65283C3.0942 9.36121 2.92217 8.96837 2.92217 8.54865C2.92217 7.7788 3.50415 7.13215 4.27399 7.0431C4.50944 7.01502 4.70835 6.85523 4.78396 6.6295C4.85836 6.40377 4.79614 6.15614 4.62291 5.99263C4.22149 5.61443 4.06044 5.0837 4.18123 4.53707C4.3313 3.85627 4.99259 3.36335 5.75391 3.36335H16.953C17.9437 3.36335 19.6054 3.82819 20.1813 4.4053C20.3558 4.57853 20.6193 4.62977 20.8462 4.53707C21.0744 4.4431 21.2232 4.21983 21.2232 3.9734C21.2232 2.96438 22.0443 2.1433 23.0533 2.1433H26.7135C27.7225 2.1433 28.5436 2.96438 28.5436 3.9734V13.7339C28.5436 14.743 27.7225 15.564 26.7135 15.564H21.2232V14.954C21.2232 14.7429 21.1134 14.5465 20.9329 14.4342C20.7547 14.3269 20.5302 14.3159 20.3399 14.4086L19.1199 15.0187C18.9966 15.0797 18.8978 15.1822 18.8392 15.3078L15.179 23.2383C15.1424 23.3188 15.1229 23.4067 15.1229 23.4945V27.4341C14.8691 27.5744 14.4286 27.7647 13.9028 27.7647C13.2342 27.7647 11.4627 26.103 11.4627 24.1045C11.4627 21.9572 12.6315 18.8619 12.6425 18.8313C12.7132 18.6447 12.6888 18.4336 12.5754 18.2677C12.4607 18.103 12.2728 18.0041 12.0727 18.0041H3.67743C2.6599 18.0041 1.79609 17.2758 1.71071 16.3461C1.64602 15.6506 1.98036 14.9893 2.57937 14.6197C2.76604 14.505 2.87705 14.2976 2.86853 14.0767C2.86001 13.8559 2.7331 13.6583 2.53791 13.557C2.02182 13.2947 1.70219 12.7774 1.70219 12.2088C1.70213 11.439 2.2841 10.7923 3.0552 10.7033Z" fill="#0B1E73"/>
</svg>
