<svg width="30" height="29" viewBox="0 0 30 29" fill="none" xmlns="http://www.w3.org/2000/svg">
<path d="M29.807 17.645C29.807 16.9118 29.5154 16.2285 29.0127 15.7246C29.5825 15.1012 29.8729 14.2654 29.7935 13.3955C29.6508 11.8448 28.2538 10.6296 26.6116 10.6296H19.0753C19.4486 9.49617 20.0464 7.41844 20.0464 5.74939C20.0464 3.10306 17.7979 0.869141 16.3862 0.869141C15.1198 0.869141 14.2133 1.58288 14.1755 1.61216C14.0303 1.72809 13.9461 1.90378 13.9461 2.08919V6.22641L10.4311 13.8384L10.2859 13.9128V13.6798C10.2859 13.343 10.0126 13.0697 9.67583 13.0697H3.57554C1.8931 13.0698 0.525391 14.4375 0.525391 16.1199V25.8805C0.525391 27.563 1.8931 28.9306 3.57554 28.9306H7.23574C8.55461 28.9306 9.68195 28.0888 10.1065 26.9139C11.1217 27.4361 12.4881 27.7106 13.3361 27.7106H24.5351C25.8637 27.7106 27.0265 26.815 27.2997 25.5803C27.44 24.9435 27.3583 24.3029 27.0801 23.7466C27.9805 23.2939 28.5869 22.363 28.5869 21.3052C28.5869 20.8733 28.4881 20.4597 28.3014 20.0864C29.2018 19.6325 29.807 18.7028 29.807 17.645ZM27.2339 19.1506C26.9984 19.1787 26.7995 19.3384 26.7239 19.5642C26.6495 19.7899 26.7117 20.0375 26.8849 20.2011C27.1949 20.4927 27.3669 20.8855 27.3669 21.3052C27.3669 22.0751 26.7849 22.7217 26.0151 22.8108C25.7796 22.8389 25.5807 22.9986 25.5051 23.2244C25.4307 23.4501 25.4929 23.6977 25.6662 23.8613C26.0676 24.2395 26.2286 24.7702 26.1078 25.3168C25.9578 25.9976 25.2965 26.4905 24.5352 26.4905H13.3361C12.3454 26.4905 10.6836 26.0257 10.1078 25.4486C9.9333 25.2753 9.66977 25.2241 9.44284 25.3168C9.2147 25.4108 9.06583 25.634 9.06583 25.8805C9.06583 26.8895 8.24475 27.7106 7.23574 27.7106H3.57554C2.56652 27.7106 1.74544 26.8895 1.74544 25.8805V16.1199C1.74544 15.1109 2.56652 14.2898 3.57554 14.2898H9.06583V14.8999C9.06583 15.111 9.17564 15.3074 9.35619 15.4196C9.53434 15.527 9.75881 15.538 9.94914 15.4453L11.1692 14.8352C11.2924 14.7742 11.3913 14.6717 11.4498 14.546L15.11 6.6156C15.1466 6.53507 15.1661 6.44723 15.1661 6.35938V2.41981C15.4199 2.27952 15.8604 2.08919 16.3862 2.08919C17.0548 2.08919 18.8264 3.75092 18.8264 5.74939C18.8264 7.89672 17.6576 10.992 17.6466 11.0225C17.5759 11.2092 17.6002 11.4203 17.7137 11.5862C17.8284 11.7509 18.0163 11.8497 18.2163 11.8497H26.6116C27.6292 11.8497 28.493 12.5781 28.5784 13.5078C28.643 14.2032 28.3087 14.8645 27.7097 15.2342C27.523 15.3489 27.412 15.5563 27.4205 15.7771C27.4291 15.9979 27.556 16.1956 27.7512 16.2969C28.2672 16.5592 28.5869 17.0765 28.5869 17.645C28.5869 18.4149 28.005 19.0615 27.2339 19.1506Z" fill="#0B1E73"/>
</svg>
